<?xml version="1.0" standalone="no"?>
<!DOCTYPE svg PUBLIC "-//W3C//DTD SVG 20010904//EN"
 "http://www.w3.org/TR/2001/REC-SVG-20010904/DTD/svg10.dtd">
<svg version="1.0" xmlns="http://www.w3.org/2000/svg"
 width="500.000000pt" height="500.000000pt" viewBox="0 0 500.000000 500.000000"
 preserveAspectRatio="xMidYMid meet">
<metadata>
Created by potrace 1.14, written by Peter Selinger 2001-2017
</metadata>
<g transform="translate(0.000000,500.000000) scale(0.100000,-0.100000)"
fill="#000000" stroke="none">
<path d="M775 4661 l-29 -32 -2 -219 c0 -121 -4 -223 -7 -226 -4 -4 -60 -21
-126 -39 -141 -39 -180 -57 -221 -98 -34 -35 -46 -67 -35 -94 4 -10 9 -29 12
-43 5 -23 7 -1690 3 -2287 -1 -270 2 -288 49 -300 15 -4 57 5 105 20 91 30
179 52 246 62 25 4 53 9 64 11 18 3 85 11 161 19 68 7 267 7 330 1 136 -15
252 -30 310 -41 267 -49 533 -147 710 -264 63 -41 77 -46 134 -48 63 -2 68 -1
145 49 98 63 206 113 356 166 289 101 548 142 855 136 110 -2 211 -5 225 -8
14 -2 48 -7 75 -10 68 -8 222 -42 327 -73 95 -28 130 -26 149 10 10 17 12 335
12 1342 0 1216 -1 1323 -17 1356 -18 38 -18 38 -288 110 l-88 24 0 218 c0 251
-5 271 -66 283 -35 6 -215 -1 -279 -11 -16 -3 -46 -6 -65 -8 -122 -14 -378
-97 -540 -176 -269 -131 -550 -356 -735 -589 -32 -40 -61 -69 -65 -65 -3 4
-40 49 -82 98 -287 342 -665 587 -1073 695 -148 39 -214 49 -380 56 l-140 6
-30 -31z m-30 -1623 c-1 -530 1 -973 3 -986 8 -44 42 -55 187 -67 103 -7 176
-15 195 -20 8 -2 31 -7 50 -10 253 -42 593 -210 847 -417 132 -108 135 -111
56 -77 -44 19 -250 84 -298 94 -11 2 -51 10 -90 18 -212 45 -486 62 -700 43
-126 -11 -262 -34 -360 -60 -49 -13 -91 -23 -93 -21 -3 2 -3 391 -2 2210 l0
190 88 31 c48 17 94 32 102 33 13 1 15 -112 15 -961z m3695 895 c14 -4 16
-135 17 -1204 0 -659 -1 -1199 -3 -1199 -2 0 -41 9 -86 19 -46 10 -117 24
-158 31 -41 6 -86 13 -100 16 -107 17 -367 22 -514 11 -49 -4 -92 -9 -95 -11
-3 -2 -35 -7 -71 -10 -36 -4 -72 -9 -80 -11 -8 -2 -33 -6 -55 -10 -92 -13
-344 -88 -482 -144 -29 -11 -53 -17 -52 -13 1 8 138 130 235 207 139 112 325
223 474 285 41 17 75 30 75 30 0 -1 7 1 15 4 167 54 272 74 475 91 139 12 160
16 178 37 16 19 17 80 17 978 l0 958 98 -30 c53 -16 104 -32 112 -35z"/>
<path d="M1804 1141 c34 -64 229 -129 450 -148 105 -10 383 -10 466 0 114 12
154 18 195 29 22 5 48 12 59 14 69 13 152 53 186 89 23 25 22 46 -2 28 -39
-30 -196 -77 -313 -94 -151 -22 -186 -24 -360 -24 -224 0 -309 9 -478 50 -54
13 -125 37 -157 54 l-60 29 14 -27z"/>
<path d="M4716 1139 c-70 -118 -291 -266 -543 -363 -162 -63 -459 -143 -668
-181 -128 -22 -258 -41 -355 -50 -36 -4 -81 -8 -100 -10 -19 -2 -80 -7 -135
-11 -55 -3 -118 -8 -140 -10 -52 -4 -560 -4 -645 0 -104 6 -243 16 -270 21
-14 2 -56 7 -95 11 -38 3 -110 12 -160 20 -49 7 -108 16 -130 20 -22 3 -58 9
-80 14 -22 5 -56 12 -75 15 -99 17 -341 82 -465 127 -292 104 -493 226 -593
359 -41 56 -53 53 -73 -18 -56 -200 96 -381 452 -538 108 -48 333 -121 432
-141 10 -2 26 -5 35 -8 9 -3 35 -7 57 -11 22 -3 65 -10 95 -15 64 -11 96 -15
205 -29 123 -15 164 -20 245 -26 41 -3 98 -8 125 -11 273 -25 1185 -25 1322 0
10 2 59 7 108 11 50 3 104 8 120 11 17 2 86 11 155 19 287 36 401 59 595 122
355 113 582 258 662 421 36 74 37 158 2 229 -30 60 -56 67 -83 22z"/>
<path d="M950 1132 c0 -56 59 -137 139 -191 156 -106 388 -186 682 -235 19 -3
43 -7 54 -10 50 -9 139 -20 280 -32 123 -11 658 -12 775 -1 80 7 205 23 260
33 14 2 43 7 65 10 175 25 479 117 585 177 19 11 45 25 56 32 84 44 166 137
179 204 l7 34 -65 -47 c-76 -54 -199 -114 -312 -151 -88 -29 -276 -76 -360
-90 -16 -3 -41 -7 -55 -10 -14 -3 -40 -7 -57 -10 -18 -3 -48 -7 -65 -10 -18
-3 -44 -8 -58 -10 -61 -13 -104 -18 -215 -30 -141 -14 -194 -17 -350 -17 -158
0 -305 7 -365 17 -14 3 -54 7 -89 10 -35 3 -67 7 -70 9 -3 2 -31 7 -61 11 -30
4 -57 8 -60 10 -3 2 -27 6 -55 9 -174 23 -462 99 -599 157 -67 29 -173 89
-199 112 -6 7 -20 18 -30 26 -15 12 -17 11 -17 -7z"/>
</g>
</svg>
