<?xml version="1.0" standalone="no"?>
<!DOCTYPE svg PUBLIC "-//W3C//DTD SVG 20010904//EN"
 "http://www.w3.org/TR/2001/REC-SVG-20010904/DTD/svg10.dtd">
<svg version="1.0" xmlns="http://www.w3.org/2000/svg"
 width="500.000000pt" height="500.000000pt" viewBox="0 0 500.000000 500.000000"
 preserveAspectRatio="xMidYMid meet">
<metadata>
Created by potrace 1.14, written by Peter Selinger 2001-2017
</metadata>
<g transform="translate(0.000000,500.000000) scale(0.100000,-0.100000)"
fill="#000000" stroke="none">
<path d="M1044 4099 c3 -24 8 -77 11 -116 l7 -73 -34 -1 c-18 0 -42 -2 -53 -4
-11 -2 -40 -5 -64 -7 l-43 -2 6 -95 c4 -53 9 -107 10 -121 2 -14 7 -63 10
-108 4 -46 9 -98 11 -115 2 -18 6 -68 10 -112 11 -138 15 -189 20 -225 2 -19
7 -71 10 -115 4 -44 8 -96 10 -115 2 -19 6 -64 10 -100 3 -36 8 -85 10 -110 2
-25 7 -76 10 -115 3 -38 8 -95 11 -125 2 -30 6 -73 9 -95 2 -22 7 -76 11 -120
3 -44 9 -84 11 -89 3 -4 26 -5 52 -2 208 30 523 26 677 -9 12 -3 38 -7 58 -11
139 -22 377 -119 503 -205 41 -28 44 -29 179 -29 l137 0 61 39 c139 87 267
141 446 185 103 25 130 29 260 43 124 13 365 7 528 -13 23 -3 43 -1 43 3 3 19
7 53 13 133 4 47 9 99 11 115 1 17 6 66 9 110 4 44 9 98 11 120 3 22 7 69 10
105 3 36 7 85 10 110 2 25 7 73 10 108 11 134 16 188 20 222 2 19 7 71 10 115
3 44 8 91 10 105 2 14 6 66 10 115 4 50 8 104 10 120 2 17 6 64 10 105 3 41 8
96 11 122 6 54 7 54 -106 63 -41 4 -78 8 -81 11 -3 2 -5 14 -3 26 3 13 8 63
12 112 l8 89 -135 -6 c-75 -4 -145 -8 -157 -11 -11 -2 -45 -7 -75 -10 -30 -3
-63 -8 -74 -10 -11 -3 -53 -12 -94 -21 -332 -71 -650 -235 -856 -441 l-65 -66
-91 85 c-150 142 -344 260 -559 340 -154 57 -262 83 -500 121 -19 4 -97 9
-174 12 l-138 7 6 -44z m391 -95 c97 -16 286 -64 350 -89 22 -9 49 -19 59 -22
55 -18 242 -118 325 -173 52 -35 135 -104 185 -154 l91 -91 0 -731 0 -732 -81
77 c-224 212 -606 393 -994 471 -36 7 -68 16 -71 19 -4 3 -10 41 -14 84 -4 43
-8 88 -10 100 -2 12 -6 62 -10 111 -4 50 -8 97 -10 105 -2 9 -6 55 -10 103 -3
49 -8 96 -9 105 -2 10 -7 58 -11 107 -4 50 -8 97 -10 106 -2 8 -6 58 -10 110
-4 52 -8 102 -10 110 -2 8 -6 53 -10 100 -4 47 -9 93 -10 102 -2 10 -7 57 -10
105 -3 48 -7 89 -7 92 0 4 0 8 1 11 2 8 171 -8 276 -26z m2400 -38 c-4 -39 -8
-87 -10 -106 -2 -19 -6 -64 -10 -100 -3 -36 -8 -81 -10 -100 -3 -19 -7 -64
-10 -100 -5 -60 -8 -89 -20 -210 -2 -25 -7 -74 -10 -110 -9 -105 -15 -173 -20
-210 -3 -19 -7 -71 -10 -115 -4 -44 -8 -87 -10 -95 -3 -14 -18 -183 -19 -223
0 -11 -10 -20 -26 -24 -522 -122 -833 -268 -1061 -498 l-66 -66 -2 734 -2 734
71 72 c257 259 633 424 1080 474 63 7 121 13 128 13 11 1 12 -15 7 -70z
m-2764 -170 c0 -6 2 -20 3 -31 2 -11 6 -56 10 -100 4 -44 9 -91 11 -105 2 -14
6 -56 10 -95 3 -38 8 -90 10 -115 3 -25 7 -74 10 -110 3 -36 7 -81 10 -100 2
-19 7 -69 10 -110 4 -41 8 -88 10 -105 2 -16 6 -66 10 -110 4 -44 9 -91 10
-105 2 -14 7 -63 10 -110 11 -129 5 -116 60 -123 108 -15 324 -74 475 -129 74
-27 266 -116 325 -151 45 -26 125 -79 125 -83 0 -2 -20 5 -46 16 -116 50 -326
103 -454 115 -36 4 -76 8 -90 11 -42 7 -248 6 -357 -1 -57 -4 -103 -3 -104 1
0 5 -2 16 -3 24 -2 8 -7 58 -11 110 -11 142 -12 149 -19 223 -3 37 -8 97 -11
135 -3 37 -8 81 -10 97 -2 17 -7 71 -10 120 -4 50 -8 101 -10 115 -4 27 -13
119 -20 210 -2 30 -6 78 -9 105 -3 28 -8 82 -11 120 -3 39 -7 88 -10 110 -3
22 -7 70 -10 107 -5 63 -4 67 17 70 50 7 68 5 69 -6z m2935 4 c7 0 11 -8 10
-17 -2 -10 -7 -58 -11 -108 -3 -49 -8 -103 -10 -120 -2 -16 -6 -61 -9 -100 -7
-82 -14 -148 -21 -225 -6 -66 -12 -130 -20 -230 -3 -41 -8 -91 -10 -110 -2
-19 -7 -64 -10 -100 -3 -36 -8 -90 -11 -120 -2 -30 -7 -80 -9 -110 -3 -30 -7
-73 -9 -95 -3 -22 -8 -80 -12 -128 l-6 -88 -132 7 c-72 4 -142 7 -156 7 -46 0
-258 -14 -281 -18 -13 -3 -41 -7 -64 -10 -71 -10 -237 -54 -319 -85 -44 -16
-82 -28 -84 -26 -7 8 147 97 258 150 165 78 427 163 590 192 25 4 48 9 53 10
4 1 18 2 31 3 23 1 25 6 31 69 3 37 8 83 10 102 4 31 7 71 20 220 5 61 16 174
20 210 2 19 7 67 10 105 3 39 8 86 10 105 2 19 7 64 10 100 3 36 8 85 11 110
5 47 9 96 19 219 3 41 8 79 12 84 3 5 19 6 35 3 17 -3 36 -6 44 -6z"/>
<path d="M694 3712 l-111 -3 18 -132 c10 -73 21 -157 24 -187 3 -30 8 -66 10
-80 3 -14 7 -47 10 -75 3 -27 8 -57 10 -65 2 -8 7 -46 11 -85 3 -38 8 -77 9
-85 5 -29 14 -95 20 -145 3 -27 8 -61 10 -75 2 -14 6 -46 10 -72 3 -27 7 -69
10 -95 4 -27 8 -59 10 -73 2 -14 9 -61 14 -105 6 -44 15 -116 21 -160 5 -44
13 -100 16 -125 3 -25 7 -56 10 -70 2 -14 7 -55 10 -92 8 -77 -3 -70 134 -92
52 -9 106 -18 120 -21 138 -24 322 -56 350 -60 34 -5 82 -14 125 -21 11 -2 43
-8 70 -13 28 -6 66 -13 85 -15 19 -3 61 -10 93 -16 31 -5 83 -15 115 -20 31
-6 73 -13 92 -16 33 -5 55 -8 110 -19 42 -9 73 -14 115 -21 22 -3 58 -9 80
-13 22 -4 121 -7 220 -6 158 2 204 7 380 38 284 52 274 50 250 32 -41 -32
-238 -83 -385 -100 -30 -3 -68 -8 -85 -10 -42 -6 -333 -6 -375 0 -19 3 -57 7
-85 10 -27 3 -63 8 -80 11 -16 3 -43 7 -60 10 -68 11 -183 47 -224 70 -51 28
-51 28 -51 10 0 -40 136 -103 280 -130 136 -26 204 -31 430 -31 197 1 298 10
439 40 26 6 127 42 153 55 31 17 78 61 78 75 0 6 46 18 103 28 56 10 113 19
127 22 14 2 68 11 120 20 52 9 104 18 115 19 51 9 92 16 115 20 14 2 43 7 65
11 53 10 50 10 205 36 74 12 138 25 143 29 9 8 13 29 21 112 4 37 9 75 11 86
2 10 6 43 10 72 4 29 8 60 10 69 1 9 6 45 10 81 4 36 8 72 10 80 1 8 6 42 9
75 4 33 9 74 11 90 3 17 16 118 30 225 29 220 33 249 39 305 3 22 8 56 10 75
3 19 10 71 15 115 6 44 17 134 26 200 9 66 18 139 21 163 l5 42 -116 0 -115 0
-1 -32 c0 -18 -2 -44 -4 -58 -1 -14 -6 -59 -9 -100 -4 -41 -9 -95 -11 -120 -3
-25 -7 -78 -10 -118 -3 -39 -7 -87 -10 -105 -2 -17 -7 -63 -10 -102 -3 -38 -7
-88 -9 -110 -3 -22 -7 -78 -11 -125 -4 -47 -8 -97 -10 -112 -2 -14 -6 -62 -10
-105 -4 -43 -8 -94 -10 -113 -2 -19 -6 -75 -10 -125 -4 -49 -9 -98 -11 -108
-1 -10 -6 -62 -10 -115 -3 -53 -8 -100 -10 -104 -3 -4 -24 -5 -47 -2 -23 3
-91 11 -150 17 -110 13 -357 15 -457 3 -117 -14 -139 -18 -255 -48 -134 -34
-297 -103 -394 -166 -47 -30 -76 -42 -105 -43 -242 -9 -293 -3 -366 43 -81 52
-175 97 -265 129 -139 48 -222 66 -410 88 -73 9 -368 7 -420 -3 -16 -3 -52 -7
-80 -10 -27 -3 -67 -9 -87 -12 -35 -5 -38 -4 -39 18 0 12 -2 34 -3 48 -2 14
-6 59 -10 100 -9 104 -14 164 -22 245 -4 39 -8 84 -9 100 -4 59 -17 201 -20
226 -2 14 -6 66 -10 115 -4 49 -8 100 -10 114 -2 14 -7 59 -10 100 -3 41 -8
91 -10 110 -3 19 -7 73 -11 120 -3 47 -7 99 -9 115 -2 17 -6 64 -10 105 -7 83
-14 144 -18 144 -1 1 -52 0 -113 -2z"/>
<path d="M4700 1695 c-115 -149 -343 -284 -651 -386 -106 -34 -285 -84 -349
-96 -14 -2 -63 -13 -110 -23 -108 -24 -409 -67 -520 -75 -47 -4 -94 -8 -106
-10 -150 -23 -776 -24 -1014 -1 -19 2 -69 7 -110 10 -41 4 -86 9 -100 11 -14
2 -47 7 -75 10 -85 10 -325 51 -402 70 -13 3 -31 7 -40 9 -184 42 -264 66
-445 134 -250 94 -453 231 -540 362 l-16 25 -22 -50 c-100 -230 139 -471 629
-631 113 -37 269 -80 316 -88 17 -2 62 -9 100 -16 39 -6 86 -13 105 -16 19 -2
46 -6 60 -9 26 -4 66 -10 155 -19 48 -5 86 -9 235 -21 36 -3 92 -8 125 -11
100 -10 952 -12 1075 -3 186 13 263 19 300 24 19 2 64 7 100 10 36 3 72 7 80
10 8 2 46 7 85 10 38 4 72 8 75 10 3 2 30 6 60 10 30 3 62 8 70 10 8 2 35 7
60 10 121 16 408 106 555 175 343 159 489 342 425 530 -16 48 -41 80 -61 80
-3 0 -26 -25 -49 -55z"/>
<path d="M953 1697 c13 -98 136 -204 322 -278 44 -17 89 -35 100 -40 28 -11
150 -46 210 -59 79 -18 82 -19 240 -44 221 -36 371 -47 645 -48 179 -1 389 7
450 17 14 2 52 6 85 10 185 19 467 79 588 124 42 16 77 28 77 26 0 -2 37 15
83 37 156 76 243 154 267 239 17 58 19 58 -67 -11 -39 -32 -186 -99 -298 -135
-162 -54 -250 -74 -545 -124 -205 -35 -226 -38 -368 -47 -185 -13 -538 -7
-642 11 -14 2 -59 9 -100 14 -41 6 -86 13 -100 16 -61 12 -78 15 -120 20 -25
3 -90 15 -145 26 -292 60 -512 142 -634 239 l-53 42 5 -35z"/>
</g>
</svg>
